<svg width="164" height="29" viewBox="0 0 164 29" fill="none" xmlns="http://www.w3.org/2000/svg">
<path d="M13.2664 11.058C15.3966 11.764 17.0944 12.5012 18.3599 13.2592C19.6254 14.0224 20.585 14.8011 21.2389 15.6006C21.8927 16.4001 22.3198 17.2204 22.5149 18.0614C22.71 18.9024 22.8154 19.7694 22.8154 20.6572C22.8154 21.8097 22.6045 22.9051 22.1774 23.9434C21.7503 24.9817 21.0807 25.8799 20.1579 26.6378C19.2352 27.3958 18.0752 27.9876 16.6621 28.4082C15.2489 28.8287 13.5458 29.0104 11.5474 28.9585C10.4296 28.9325 9.29595 28.7819 8.15175 28.5068C7.00756 28.2316 5.92136 27.8838 4.89316 27.4633C3.86496 27.0428 2.92641 26.6067 2.07748 26.1446C1.22329 25.6878 0.532553 25.2725 0 24.9039L2.95804 19.3956C3.73314 19.9978 4.60316 20.6208 5.57335 21.2646C6.54355 21.9083 7.56647 22.4898 8.63158 23.0141C9.69669 23.5385 10.7829 23.9746 11.8902 24.312C12.9975 24.6547 14.0678 24.826 15.1066 24.826C15.908 24.826 16.5566 24.691 17.0628 24.4107C17.569 24.1355 17.8906 23.7098 18.0224 23.1335C18.1543 22.5832 18.0541 22.0952 17.7219 21.6799C17.3897 21.2594 16.8572 20.8596 16.1242 20.4807C15.3913 20.1017 14.4791 19.7123 13.3876 19.3177C12.2962 18.9232 11.0571 18.4923 9.67032 18.0199C8.20448 17.4955 6.91792 16.9556 5.8159 16.4053C4.70861 15.855 3.79115 15.232 3.05823 14.5363C2.32531 13.8407 1.77166 13.0464 1.39729 12.1586C1.02292 11.2657 0.838376 10.2325 0.838376 9.04887C0.838376 8.104 1.01238 7.14876 1.36038 6.17794C1.70839 5.20712 2.28312 4.34013 3.10041 3.58216C3.91242 2.8242 4.97753 2.19602 6.29573 1.71321C7.61393 1.23039 9.23268 0.986389 11.152 0.986389C12.8815 0.986389 14.4738 1.18886 15.9291 1.5938C17.3792 1.99874 18.6552 2.4556 19.7466 2.94879C21.0016 3.52506 22.1458 4.18438 23.1845 4.91639L20.1896 10.0716C19.4145 9.5213 18.5497 8.93984 17.5901 8.32205C16.6304 7.70425 15.6339 7.14876 14.5951 6.65037C13.5564 6.15198 12.5018 5.74185 11.4367 5.40959C10.3716 5.08252 9.33286 4.91639 8.32048 4.91639C7.54538 4.91639 6.92319 5.05656 6.44337 5.33172C5.96354 5.60687 5.69463 6.04815 5.6419 6.65037C5.53644 7.14876 5.64717 7.59004 5.97936 7.96902C6.31155 8.34801 6.82301 8.70622 7.51902 9.03329C8.20975 9.36036 9.0534 9.68223 10.0394 9.99892C11.0254 10.3156 12.1064 10.6686 13.2769 11.0632L13.2664 11.058Z" fill="#FF2153"/>
<path d="M45.425 25.3036C44.5708 26.0927 43.706 26.7209 42.8255 27.1933C41.9449 27.6658 41.0749 28.0344 40.2102 28.2939C39.3454 28.5535 38.5123 28.7248 37.7109 28.8079C36.9094 28.8858 36.1659 28.9273 35.4752 28.9273C33.6086 28.9273 31.9741 28.6729 30.5609 28.159C29.1478 27.645 27.9667 26.9338 27.0229 26.0149C26.0791 25.096 25.362 24.0161 24.8874 22.7701C24.4076 21.5242 24.165 20.1796 24.165 18.7363C24.165 17.293 24.397 15.8913 24.8663 14.6038C25.3303 13.3163 26.0369 12.1898 26.986 11.2189C27.9298 10.2481 29.1109 9.49014 30.524 8.93465C31.9371 8.38434 33.5875 8.10919 35.4805 8.10919C36.2819 8.10919 37.173 8.19226 38.1591 8.36358C39.1451 8.5349 40.0889 8.86716 40.9958 9.36555C41.9027 9.86394 42.7148 10.5596 43.4319 11.4526C44.149 12.3455 44.6551 13.5136 44.9504 14.9568L40.0362 16.1769C39.7409 14.1314 39.0976 12.5895 38.0958 11.5512C37.094 10.5129 35.9181 9.99892 34.5577 9.99892C33.7563 9.99892 32.9917 10.1235 32.2588 10.3727C31.5259 10.6219 30.8879 10.9957 30.3395 11.4941C29.7911 11.9925 29.3587 12.5947 29.0424 13.3059C28.726 14.0172 28.5626 14.8271 28.5626 15.746C28.5626 17.0854 28.7629 18.212 29.1637 19.1309C29.5644 20.0498 30.1022 20.7973 30.7824 21.3736C31.4626 21.9499 32.2482 22.3704 33.1393 22.6352C34.0305 22.8999 34.969 23.0297 35.955 23.0297C36.4349 23.0297 36.9621 22.9882 37.5316 22.9103C38.1063 22.8324 38.6863 22.6819 39.2716 22.4586C39.8569 22.2354 40.4369 21.9447 41.0116 21.5917C41.5864 21.2386 42.1242 20.787 42.6304 20.2367L45.4303 25.314L45.425 25.3036Z" fill="#FF2153"/>
<path d="M60.3158 8.57644C61.6498 8.57644 62.7677 8.79968 63.6746 9.24615C64.5815 9.69263 65.3144 10.3104 65.8733 11.0943C66.4322 11.8835 66.833 12.8127 67.0703 13.8874C67.3128 14.9621 67.4288 16.1301 67.4288 17.3917V28.5276H59.9942V18.0614C59.9942 16.4884 59.7727 15.3618 59.3351 14.6765C58.8974 13.9964 58.1961 13.6538 57.2365 13.6538C56.0079 13.6538 55.2065 14.1781 54.8163 15.2268C54.4313 16.2755 54.2363 17.7863 54.2363 19.7539V28.5276H47.1602V0.0415344H54.753V9.68224C54.115 10.3623 53.5192 11.5979 52.9761 13.3786C52.4593 15.0659 52.1851 17.2775 52.1588 20.0186C52.1588 20.2834 52.375 20.5014 52.6439 20.5014C52.9075 20.5014 53.1184 20.2938 53.1237 20.0394C53.1448 18.918 53.2344 17.7447 53.3979 16.5091C53.5824 15.1074 53.9357 13.8147 54.4577 12.631C54.9797 11.4526 55.7021 10.4817 56.6354 9.71859C57.5687 8.96062 58.792 8.57644 60.3105 8.57644H60.3158Z" fill="#FF2153"/>
<path d="M102.224 8.81525L96.5874 28.5276H88.3935C88.0718 27.1622 87.7765 25.8539 87.4918 24.5924C87.2123 23.3308 86.9645 22.1679 86.7536 21.0881C86.5427 20.0134 86.3529 19.0426 86.1947 18.1756C86.0365 17.3086 85.9152 16.6026 85.8361 16.0523H85.3141C85.2351 16.6026 85.1138 17.3086 84.9556 18.1756C84.7974 19.0426 84.6023 20.0134 84.3756 21.0881C84.1489 22.1627 83.8958 23.3308 83.6163 24.5924C83.3368 25.8487 83.0363 27.1622 82.7146 28.5276H74.5629L68.9263 8.81525H76.8777C77.0358 9.65628 77.2046 10.5752 77.3786 11.572C77.5526 12.5687 77.7055 13.5447 77.8373 14.5052C77.9691 15.4604 78.1009 16.343 78.238 17.1425C78.3699 17.942 78.4753 18.565 78.5597 19.0114L78.7811 24.4314C78.7917 24.7066 79.0184 24.9298 79.3031 24.9298C79.5826 24.9298 79.8093 24.717 79.8252 24.4418L80.1995 19.0114C80.4104 17.8849 80.6372 16.7272 80.8797 15.5487C81.0906 14.5519 81.3121 13.4565 81.5388 12.2624C81.7655 11.0684 81.987 9.92105 82.1979 8.82044H88.9524C89.1633 9.92105 89.3847 11.0684 89.6115 12.2624C89.8382 13.4565 90.0597 14.5519 90.2706 15.5487C90.5131 16.7272 90.7346 17.8849 90.9508 19.0114L91.3251 24.4626C91.341 24.7273 91.5571 24.9298 91.826 24.9298C92.095 24.9298 92.3164 24.7222 92.327 24.4522L92.5906 19.0114C92.6697 18.565 92.7699 17.942 92.8912 17.1425C93.0124 16.343 93.1442 15.4656 93.2919 14.5052C93.4395 13.5499 93.5977 12.5687 93.7717 11.572C93.9457 10.5752 94.1092 9.65628 94.2726 8.81525H102.224Z" fill="#FF2153"/>
<path d="M113.08 8.57645C114.652 8.57645 116.123 8.82045 117.499 9.30326C118.87 9.79127 120.072 10.4714 121.095 11.3487C122.118 12.2261 122.935 13.2956 123.531 14.5571C124.132 15.8187 124.433 17.2204 124.433 18.7675C124.433 20.3145 124.132 21.7993 123.531 23.0557C122.93 24.312 122.118 25.3815 121.095 26.2641C120.067 27.1414 118.87 27.8163 117.499 28.2888C116.128 28.7612 114.657 28.9948 113.08 28.9948C111.504 28.9948 110.038 28.7612 108.662 28.2888C107.291 27.8163 106.089 27.1414 105.066 26.2641C104.038 25.3867 103.226 24.3172 102.63 23.0557C102.029 21.7941 101.728 20.3665 101.728 18.7675C101.728 17.1685 102.029 15.8187 102.63 14.5571C103.231 13.3008 104.043 12.2313 105.066 11.3487C106.089 10.4714 107.291 9.78608 108.662 9.30326C110.033 8.82045 111.504 8.57645 113.08 8.57645ZM113.681 23.0193C114.536 23.0193 115.311 22.8688 116.017 22.5677C116.724 22.2666 117.325 21.8616 117.815 21.3477C118.306 20.8337 118.696 20.2263 118.975 19.5202C119.255 18.809 119.392 18.0666 119.392 17.2775C119.392 16.4884 119.255 15.7408 118.975 15.0347C118.696 14.3287 118.311 13.7161 117.815 13.2073C117.32 12.6933 116.724 12.2884 116.017 11.9873C115.311 11.6862 114.53 11.5356 113.681 11.5356C112.833 11.5356 112.047 11.6862 111.346 11.9873C110.644 12.2884 110.038 12.6933 109.548 13.2073C109.052 13.7213 108.667 14.3287 108.388 15.0347C108.108 15.7408 107.966 16.4884 107.966 17.2775C107.966 18.0666 108.113 18.8142 108.403 19.5202C108.699 20.2263 109.094 20.8389 109.6 21.3477C110.107 21.8616 110.708 22.2666 111.398 22.5677C112.089 22.8688 112.848 23.0193 113.676 23.0193H113.681Z" fill="#FF2153"/>
<path d="M126.452 28.5276V18.6688C126.452 16.8725 126.447 15.1126 126.431 13.3942C126.415 11.6758 126.41 10.1495 126.41 8.81006H134.045V9.87433C133.328 11.2916 132.78 12.8543 132.405 14.5571C132.057 16.1353 131.873 17.9472 131.846 19.9979C131.846 20.273 132.073 20.5014 132.353 20.5014C132.627 20.5014 132.843 20.2886 132.848 20.0186C132.875 18.9284 132.991 17.7759 133.202 16.5662C133.439 15.1749 133.876 13.8926 134.499 12.7089C135.126 11.5304 135.959 10.544 136.998 9.76012C138.037 8.971 139.355 8.58163 140.953 8.58163V15.0347C139.993 15.0347 139.102 15.1645 138.274 15.4293C137.446 15.6941 136.729 16.099 136.117 16.6493C135.506 17.1996 135.026 17.9005 134.678 18.7519C134.33 19.6033 134.156 20.6208 134.156 21.7993L134.198 28.5276H126.447H126.452Z" fill="#FF2153"/>
<path d="M151.134 20.6208C151.029 20.6728 150.934 20.7039 150.855 20.7195C150.776 20.7351 150.707 20.7506 150.655 20.7766V28.5276H143.183V0H150.655V15.6681C150.655 15.6681 149.98 17.049 149.036 17.8278C148.092 18.6065 147.069 19.1568 146.916 19.3852C146.779 19.5929 146.811 19.8629 146.985 20.0342C147.148 20.1951 147.396 20.2367 147.596 20.1328C148.488 19.6812 149.347 19.0945 150.17 18.3729C151.103 17.5578 151.925 16.6441 152.648 15.6162C153.37 14.5883 153.94 13.498 154.367 12.3299C154.794 11.1618 155.005 9.98854 155.005 8.81006H161.996C161.996 9.91067 161.817 10.9542 161.459 11.9406C161.1 12.9218 160.62 13.8303 160.019 14.6557C159.418 15.4812 158.733 16.234 157.963 16.9193C157.188 17.5994 156.391 18.1912 155.564 18.6896L163.995 28.5276H155.88L151.124 20.6208H151.134Z" fill="#FF2153"/>
</svg>
