<svg width="140" height="41" viewBox="0 0 140 41" fill="none" xmlns="http://www.w3.org/2000/svg">
<path d="M13.0876 11.107C15.1891 11.8162 16.8641 12.5566 18.1125 13.318C19.3609 14.0845 20.3076 14.8667 20.9526 15.6697C21.5977 16.4728 22.019 17.2967 22.2115 18.1414C22.4039 18.9862 22.508 19.857 22.508 20.7487C22.508 21.9064 22.2999 23.0066 21.8786 24.0495C21.4572 25.0925 20.7966 25.9946 19.8863 26.7559C18.976 27.5172 17.8316 28.1117 16.4375 28.5341C15.0435 28.9564 13.3633 29.139 11.3918 29.0868C10.2891 29.0607 9.17068 28.9095 8.04191 28.6331C6.91313 28.3568 5.84157 28.0074 4.82722 27.585C3.81288 27.1626 2.88697 26.7246 2.04949 26.2605C1.20681 25.8016 0.525377 25.3845 0 25.0142L2.91818 19.4816C3.68284 20.0865 4.54113 20.7122 5.49825 21.3588C6.45537 22.0054 7.46451 22.5895 8.51526 23.1161C9.56602 23.6428 10.6376 24.0808 11.7299 24.4198C12.8223 24.7639 13.8783 24.936 14.903 24.936C15.6937 24.936 16.3335 24.8004 16.8329 24.5188C17.3322 24.2425 17.6495 23.8149 17.7796 23.2361C17.9096 22.6833 17.8108 22.1932 17.4831 21.776C17.1554 21.3536 16.63 20.9521 15.907 20.5714C15.1839 20.1908 14.284 19.7997 13.2072 19.4034C12.1305 19.0071 10.9081 18.5742 9.54001 18.0997C8.09392 17.573 6.8247 17.0307 5.73753 16.478C4.64516 15.9252 3.74006 15.2995 3.01701 14.6007C2.29397 13.902 1.74779 13.1042 1.37846 12.2125C1.00914 11.3156 0.827078 10.2779 0.827078 9.08895C0.827078 8.13989 0.998736 7.18041 1.34205 6.20529C1.68537 5.23017 2.25236 4.35933 3.05863 3.59801C3.8597 2.83668 4.91045 2.20572 6.21089 1.72076C7.51133 1.23581 9.10826 0.990723 11.0017 0.990723C12.7079 0.990723 14.2788 1.19409 15.7145 1.60083C17.145 2.00756 18.4038 2.46645 19.4806 2.96183C20.7186 3.54065 21.8473 4.2029 22.8721 4.93815L19.9175 10.1162C19.1528 9.56347 18.2998 8.97944 17.353 8.35891C16.4063 7.73837 15.4232 7.18041 14.3984 6.67982C13.3737 6.17922 12.3333 5.76727 11.2826 5.43353C10.2318 5.10502 9.2071 4.93815 8.20836 4.93815C7.4437 4.93815 6.8299 5.07894 6.35654 5.35532C5.88318 5.63169 5.61789 6.07493 5.56587 6.67982C5.46184 7.18041 5.57107 7.62365 5.89878 8.00432C6.22649 8.38498 6.73106 8.74478 7.4177 9.0733C8.09912 9.40182 8.93141 9.72512 9.90413 10.0432C10.8769 10.3613 11.9432 10.7159 13.098 11.1122L13.0876 11.107Z" fill="#FF2153"/>
<path d="M37.577 8.6145C38.893 8.6145 39.9958 8.83873 40.8905 9.28718C41.7852 9.73563 42.5083 10.3562 43.0596 11.1436C43.611 11.9362 44.0064 12.8696 44.2404 13.949C44.4797 15.0284 44.5942 16.2017 44.5942 17.4688V28.6541H37.2597V18.1415C37.2597 16.5615 37.0412 15.4299 36.6095 14.7416C36.1777 14.0585 35.4859 13.7143 34.5392 13.7143C33.3272 13.7143 32.5365 14.241 32.1516 15.2944C31.7718 16.3477 31.5794 17.8651 31.5794 19.8415V28.6541H24.5986V0.041748H32.0892V9.7252C31.4597 10.4083 30.8719 11.6494 30.3362 13.438C29.8264 15.1327 29.5559 17.3541 29.5299 20.1074C29.5299 20.3734 29.7432 20.5924 30.0085 20.5924C30.2685 20.5924 30.4766 20.3838 30.4818 20.1283C30.5026 19.0019 30.591 17.8234 30.7523 16.5824C30.9344 15.1744 31.2829 13.876 31.7979 12.6871C32.3128 11.5034 33.0255 10.5282 33.9462 9.7617C34.8669 9.00038 36.0737 8.6145 37.5718 8.6145H37.577Z" fill="#FF2153"/>
<path d="M78.9203 8.85437L73.3597 28.6541H65.2761C64.9588 27.2827 64.6675 25.9686 64.3866 24.7014C64.1109 23.4343 63.8665 22.2662 63.6584 21.1816C63.4503 20.1022 63.2631 19.1271 63.107 18.2562C62.951 17.3854 62.8313 16.6762 62.7533 16.1235H62.2383C62.1603 16.6762 62.0407 17.3854 61.8846 18.2562C61.7285 19.1271 61.5361 20.1022 61.3124 21.1816C61.0887 22.261 60.8391 23.4343 60.5634 24.7014C60.2877 25.9634 59.9912 27.2827 59.6739 28.6541H51.632L46.0713 8.85437H53.9155C54.0716 9.69913 54.238 10.6221 54.4097 11.6233C54.5813 12.6245 54.7322 13.6048 54.8622 14.5695C54.9923 15.529 55.1223 16.4155 55.2576 17.2185C55.3876 18.0216 55.4917 18.6473 55.5749 19.0958L55.7934 24.5398C55.8038 24.8162 56.0274 25.0404 56.3083 25.0404C56.584 25.0404 56.8077 24.8266 56.8233 24.5502L57.1926 19.0958C57.4007 17.9642 57.6244 16.8014 57.8636 15.6177C58.0717 14.6165 58.2902 13.5162 58.5139 12.3168C58.7375 11.1175 58.956 9.96507 59.1641 8.85958H65.8275C66.0356 9.96507 66.2541 11.1175 66.4777 12.3168C66.7014 13.5162 66.9199 14.6165 67.128 15.6177C67.3672 16.8014 67.5857 17.9642 67.799 19.0958L68.1683 24.5711C68.1839 24.837 68.3972 25.0404 68.6625 25.0404C68.9278 25.0404 69.1462 24.8318 69.1566 24.5607L69.4167 19.0958C69.4948 18.6473 69.5936 18.0216 69.7132 17.2185C69.8329 16.4155 69.9629 15.5342 70.1086 14.5695C70.2542 13.6101 70.4103 12.6245 70.5819 11.6233C70.7536 10.6221 70.9148 9.69913 71.0761 8.85437H78.9203Z" fill="#FF2153"/>
<path d="M89.6261 8.6145C91.1762 8.6145 92.6275 8.85959 93.9852 9.34454C95.3376 9.83471 96.5236 10.5178 97.5328 11.3991C98.5419 12.2803 99.3482 13.3545 99.936 14.6217C100.529 15.8888 100.825 17.2968 100.825 18.8507C100.825 20.4046 100.529 21.896 99.936 23.1579C99.343 24.4199 98.5419 25.4941 97.5328 26.3805C96.5184 27.2618 95.3376 27.9397 93.9852 28.4142C92.6327 28.8887 91.1814 29.1234 89.6261 29.1234C88.0708 29.1234 86.6247 28.8887 85.2671 28.4142C83.9146 27.9397 82.7286 27.2618 81.7195 26.3805C80.7051 25.4993 79.9041 24.4251 79.3163 23.1579C78.7233 21.8908 78.4268 20.4568 78.4268 18.8507C78.4268 17.2446 78.7233 15.8888 79.3163 14.6217C79.9093 13.3598 80.7103 12.2856 81.7195 11.3991C82.7286 10.5178 83.9146 9.8295 85.2671 9.34454C86.6195 8.85959 88.0708 8.6145 89.6261 8.6145ZM90.2191 23.1214C91.0618 23.1214 91.8265 22.9702 92.5235 22.6678C93.2205 22.3653 93.8135 21.9586 94.2973 21.4423C94.7811 20.9261 95.166 20.316 95.4417 19.6068C95.7174 18.8924 95.8526 18.1467 95.8526 17.3541C95.8526 16.5615 95.7174 15.8106 95.4417 15.1014C95.166 14.3922 94.7863 13.7769 94.2973 13.2659C93.8083 12.7497 93.2205 12.3429 92.5235 12.0405C91.8265 11.738 91.0566 11.5868 90.2191 11.5868C89.3816 11.5868 88.6066 11.738 87.9147 12.0405C87.2229 12.3429 86.6247 12.7497 86.141 13.2659C85.652 13.7821 85.2723 14.3922 84.9966 15.1014C84.7209 15.8106 84.5804 16.5615 84.5804 17.3541C84.5804 18.1467 84.7261 18.8976 85.0122 19.6068C85.3035 20.316 85.6936 20.9313 86.193 21.4423C86.6923 21.9586 87.2853 22.3653 87.9668 22.6678C88.6482 22.9702 89.3972 23.1214 90.2139 23.1214H90.2191Z" fill="#FF2153"/>
<path d="M102.817 28.6541V18.7517C102.817 16.9474 102.812 15.1797 102.796 13.4537C102.781 11.7276 102.775 10.1946 102.775 8.84919H110.308V9.91818C109.6 11.3418 109.059 12.9113 108.69 14.6217C108.346 16.2069 108.164 18.0268 108.138 20.0866C108.138 20.363 108.362 20.5924 108.638 20.5924C108.908 20.5924 109.122 20.3786 109.127 20.1074C109.153 19.0124 109.267 17.8548 109.475 16.6398C109.709 15.2423 110.141 13.9543 110.755 12.7653C111.374 11.5816 112.196 10.5909 113.22 9.80346C114.245 9.01084 115.546 8.61975 117.122 8.61975V15.1015C116.175 15.1015 115.296 15.2318 114.479 15.4978C113.663 15.7637 112.955 16.1704 112.352 16.7232C111.748 17.2759 111.275 17.9799 110.932 18.8351C110.588 19.6903 110.417 20.7123 110.417 21.896L110.458 28.6541H102.812H102.817Z" fill="#FF2153"/>
<path d="M127.167 20.7123C127.062 20.7644 126.969 20.7957 126.891 20.8113C126.813 20.827 126.745 20.8426 126.693 20.8687V28.6541H119.322V0H126.693V15.7376C126.693 15.7376 126.027 17.1246 125.096 17.9068C124.165 18.689 123.156 19.2418 123.005 19.4712C122.87 19.6798 122.901 19.9509 123.073 20.123C123.234 20.2847 123.478 20.3264 123.676 20.2221C124.555 19.7684 125.403 19.1792 126.215 18.4544C127.135 17.6357 127.947 16.7179 128.659 15.6854C129.372 14.6529 129.934 13.5579 130.355 12.3846C130.777 11.2113 130.985 10.0328 130.985 8.84912H137.882C137.882 9.95461 137.705 11.0027 137.352 11.9935C136.998 12.9791 136.524 13.8916 135.931 14.7207C135.338 15.5498 134.662 16.306 133.903 16.9943C133.138 17.6774 132.353 18.2718 131.536 18.7724L139.854 28.6541H131.848L127.156 20.7123H127.167Z" fill="#FF2153"/>
<path d="M80.5648 38.6712V31.3708H83.3529C84.1436 31.3708 84.7314 31.5481 85.1267 31.9079C85.522 32.2678 85.7145 32.7162 85.7145 33.2637C85.7145 33.707 85.5897 34.0564 85.3452 34.3119C85.1007 34.5674 84.799 34.7342 84.4401 34.8177V34.8907C84.7002 34.9011 84.9446 34.9793 85.1839 35.1253C85.4232 35.2713 85.6157 35.4747 85.7665 35.7354C85.9174 35.9962 85.9954 36.3143 85.9954 36.6793C85.9954 37.0443 85.9018 37.3989 85.7197 37.6961C85.5376 37.9986 85.262 38.2332 84.8926 38.4053C84.5233 38.5774 84.0655 38.666 83.509 38.666H80.5596L80.5648 38.6712ZM81.886 34.4787H83.1917C83.535 34.4787 83.8211 34.3849 84.0499 34.1971C84.2788 34.0094 84.3933 33.7591 84.3933 33.4358C84.3933 33.1542 84.2944 32.9196 84.0968 32.7371C83.8991 32.5546 83.6078 32.4607 83.2177 32.4607H81.886V34.4735V34.4787ZM81.886 37.5658H83.3061C83.7847 37.5658 84.128 37.4719 84.3412 37.2894C84.5545 37.1069 84.6586 36.867 84.6586 36.5802C84.6586 36.2569 84.5389 35.9805 84.3048 35.7615C84.0708 35.5425 83.7482 35.4278 83.3425 35.4278H81.8912V37.5658H81.886Z" fill="#FF2153"/>
<path d="M87.8416 40.804C87.6543 40.804 87.4931 40.7884 87.3526 40.7519C87.2122 40.7206 87.1081 40.6893 87.0301 40.658L87.3266 39.6255C87.6075 39.709 87.8468 39.7194 88.0341 39.6672C88.2265 39.6151 88.3826 39.4378 88.5022 39.1354L88.6323 38.786L86.6504 33.2012H88.0132L89.2721 37.3363H89.3293L90.5933 33.2012H91.9614L89.7558 39.3856C89.605 39.8185 89.3709 40.1574 89.0536 40.4181C88.7363 40.6789 88.3306 40.804 87.8364 40.804H87.8416Z" fill="#FF2153"/>
<path d="M95.3945 38.6712V31.3708H98.1254C98.9629 31.3708 99.5975 31.5846 100.034 32.0175C100.471 32.4503 100.69 33.0082 100.69 33.707C100.69 34.2024 100.581 34.63 100.357 34.9845C100.133 35.3391 99.8108 35.6051 99.3843 35.7772L100.96 38.6712H99.4883L98.0578 36.0014H96.7158V38.6712H95.3945ZM96.7158 34.9011H97.933C98.4219 34.9011 98.7809 34.7968 99.0097 34.5935C99.2386 34.3901 99.3531 34.0929 99.3531 33.707C99.3531 33.3211 99.2386 33.0134 99.0097 32.7996C98.7809 32.5858 98.4219 32.4763 97.9278 32.4763H96.721V34.9011H96.7158Z" fill="#FF2153"/>
<path d="M103.422 38.7859C102.901 38.7859 102.464 38.6451 102.116 38.3635C101.767 38.0819 101.596 37.6752 101.596 37.1381C101.596 36.7261 101.695 36.408 101.892 36.1838C102.09 35.9596 102.345 35.7927 102.662 35.6884C102.979 35.5841 103.312 35.5164 103.666 35.4746C104.145 35.4225 104.493 35.3756 104.701 35.3286C104.909 35.2817 105.013 35.167 105.013 34.9845V34.9636C105.013 34.6977 104.935 34.4891 104.774 34.3379C104.613 34.1919 104.384 34.1189 104.087 34.1189C103.77 34.1189 103.52 34.1866 103.338 34.3274C103.156 34.463 103.031 34.6299 102.969 34.8176L101.767 34.6455C101.908 34.1449 102.189 33.7695 102.6 33.514C103.011 33.2584 103.505 33.1333 104.082 33.1333C104.342 33.1333 104.602 33.1646 104.862 33.2272C105.122 33.2897 105.362 33.3888 105.58 33.5348C105.799 33.6756 105.97 33.8686 106.1 34.1136C106.23 34.3535 106.298 34.656 106.298 35.021V38.6816H105.06V37.9307H105.018C104.904 38.1601 104.712 38.3635 104.451 38.5356C104.191 38.7077 103.843 38.7963 103.416 38.7963L103.422 38.7859ZM103.754 37.8368C104.145 37.8368 104.451 37.7273 104.68 37.5031C104.909 37.2789 105.024 37.0182 105.024 36.7105V36.0639C104.972 36.1108 104.868 36.1473 104.722 36.1838C104.576 36.2203 104.42 36.2464 104.259 36.2725C104.098 36.2933 103.957 36.3142 103.843 36.335C103.557 36.3768 103.317 36.455 103.125 36.5697C102.933 36.6844 102.839 36.8721 102.839 37.1172C102.839 37.3623 102.927 37.5344 103.099 37.6543C103.271 37.7743 103.494 37.8368 103.76 37.8368H103.754Z" fill="#FF2153"/>
<path d="M108.888 35.4643V38.6712H107.604V33.1959H108.831V34.1241H108.894C109.018 33.8217 109.221 33.5766 109.497 33.3941C109.773 33.2116 110.116 33.1229 110.522 33.1229C111.083 33.1229 111.541 33.3002 111.879 33.66C112.223 34.0198 112.389 34.5256 112.389 35.1827V38.666H111.104V35.3808C111.104 35.0158 111.011 34.729 110.823 34.5204C110.636 34.3118 110.376 34.2128 110.043 34.2128C109.71 34.2128 109.429 34.3223 109.211 34.5413C108.998 34.7603 108.888 35.0627 108.888 35.4643Z" fill="#FF2153"/>
<path d="M115.734 38.7703C115.308 38.7703 114.923 38.6608 114.585 38.4365C114.247 38.2175 113.976 37.8942 113.784 37.4771C113.586 37.0547 113.487 36.5436 113.487 35.944C113.487 35.3443 113.586 34.8228 113.789 34.4057C113.987 33.9885 114.262 33.6704 114.6 33.4566C114.944 33.2376 115.324 33.1333 115.74 33.1333C116.062 33.1333 116.327 33.1855 116.53 33.295C116.733 33.4045 116.9 33.5348 117.019 33.6808C117.139 33.8321 117.233 33.9729 117.3 34.1084H117.352V31.3812H118.642V38.6816H117.378V37.8212H117.3C117.233 37.9516 117.139 38.0924 117.014 38.2436C116.889 38.3896 116.723 38.52 116.515 38.6243C116.307 38.7285 116.047 38.7807 115.734 38.7807V38.7703ZM116.093 37.7117C116.504 37.7117 116.822 37.5501 117.04 37.2215C117.264 36.893 117.373 36.4654 117.373 35.9388C117.373 35.4121 117.264 34.9845 117.04 34.6664C116.822 34.3483 116.504 34.1919 116.088 34.1919C115.672 34.1919 115.334 34.3535 115.115 34.682C114.897 35.0106 114.788 35.4277 114.788 35.9388C114.788 36.4498 114.897 36.8774 115.121 37.2111C115.344 37.5448 115.662 37.7117 116.088 37.7117H116.093Z" fill="#FF2153"/>
<path d="M124.332 34.6456L123.157 34.776C123.105 34.5935 123 34.437 122.839 34.2962C122.678 34.1607 122.449 34.0877 122.153 34.0877C121.882 34.0877 121.658 34.145 121.482 34.2597C121.3 34.3745 121.211 34.5257 121.211 34.7134C121.211 34.8751 121.268 35.0002 121.388 35.1045C121.508 35.2088 121.705 35.287 121.981 35.3496L122.912 35.5477C123.932 35.772 124.447 36.2673 124.447 37.0287C124.447 37.3728 124.348 37.6753 124.15 37.9412C123.952 38.202 123.677 38.4105 123.323 38.5565C122.969 38.7025 122.569 38.7756 122.116 38.7756C121.445 38.7756 120.909 38.6348 120.504 38.3532C120.098 38.0716 119.853 37.6805 119.775 37.1799L121.029 37.06C121.138 37.5606 121.502 37.8109 122.111 37.8109C122.418 37.8109 122.662 37.7483 122.85 37.6231C123.037 37.498 123.131 37.3415 123.131 37.1538C123.131 36.8462 122.886 36.6376 122.397 36.5281L121.466 36.3299C120.941 36.2204 120.556 36.0379 120.306 35.7772C120.056 35.5164 119.931 35.1879 119.931 34.7864C119.931 34.4475 120.025 34.1554 120.207 33.9104C120.389 33.6601 120.649 33.4723 120.982 33.3315C121.315 33.196 121.7 33.1282 122.137 33.1282C122.777 33.1282 123.281 33.2638 123.651 33.5401C124.02 33.8165 124.249 34.1815 124.337 34.6456H124.332Z" fill="#FF2153"/>
<path d="M128.233 33.2012V34.1972H127.156V37.0287C127.156 37.2894 127.213 37.4563 127.328 37.5397C127.442 37.6232 127.578 37.6649 127.739 37.6649C127.817 37.6649 127.895 37.6597 127.963 37.6493C128.03 37.6388 128.082 37.6284 128.119 37.618L128.337 38.6244C128.269 38.6504 128.171 38.6765 128.046 38.7026C127.921 38.7287 127.765 38.7495 127.583 38.7547C127.099 38.7704 126.693 38.6504 126.366 38.4001C126.038 38.1498 125.877 37.764 125.877 37.2477V34.2024H125.102V33.2064H125.877V31.8976H127.161V33.2064H128.238L128.233 33.2012Z" fill="#FF2153"/>
<path d="M130.886 38.7859C130.366 38.7859 129.929 38.6451 129.581 38.3635C129.232 38.0819 129.061 37.6752 129.061 37.1381C129.061 36.7261 129.159 36.408 129.357 36.1838C129.555 35.9596 129.81 35.7927 130.127 35.6884C130.444 35.5841 130.777 35.5164 131.131 35.4746C131.609 35.4225 131.958 35.3756 132.166 35.3286C132.374 35.2817 132.478 35.167 132.478 34.9845V34.9636C132.478 34.6977 132.4 34.4891 132.239 34.3379C132.078 34.1919 131.849 34.1189 131.552 34.1189C131.235 34.1189 130.985 34.1866 130.803 34.3274C130.621 34.463 130.496 34.6299 130.434 34.8176L129.232 34.6455C129.373 34.1449 129.654 33.7695 130.064 33.514C130.475 33.2584 130.97 33.1333 131.547 33.1333C131.807 33.1333 132.067 33.1646 132.327 33.2272C132.587 33.2897 132.827 33.3888 133.045 33.5348C133.264 33.6756 133.435 33.8686 133.565 34.1136C133.695 34.3535 133.763 34.656 133.763 35.021V38.6816H132.525V37.9307H132.483C132.369 38.1601 132.176 38.3635 131.916 38.5356C131.656 38.7077 131.308 38.7963 130.881 38.7963L130.886 38.7859ZM131.219 37.8368C131.609 37.8368 131.916 37.7273 132.145 37.5031C132.374 37.2789 132.489 37.0182 132.489 36.7105V36.0639C132.436 36.1108 132.332 36.1473 132.187 36.1838C132.041 36.2203 131.885 36.2464 131.724 36.2725C131.563 36.2933 131.422 36.3142 131.308 36.335C131.022 36.3768 130.782 36.455 130.59 36.5697C130.397 36.6844 130.304 36.8721 130.304 37.1172C130.304 37.3623 130.392 37.5344 130.564 37.6543C130.736 37.7743 130.959 37.8368 131.224 37.8368H131.219Z" fill="#FF2153"/>
<path d="M137.093 38.7703C136.666 38.7703 136.281 38.6608 135.943 38.4365C135.605 38.2175 135.335 37.8942 135.142 37.4771C134.945 37.0547 134.846 36.5436 134.846 35.944C134.846 35.3443 134.945 34.8228 135.147 34.4057C135.345 33.9885 135.621 33.6704 135.959 33.4566C136.302 33.2376 136.682 33.1333 137.098 33.1333C137.421 33.1333 137.686 33.1855 137.889 33.295C138.092 33.4045 138.258 33.5348 138.378 33.6808C138.497 33.8321 138.591 33.9729 138.659 34.1084H138.711V31.3812H140.001V38.6816H138.737V37.8212H138.659C138.591 37.9516 138.497 38.0924 138.372 38.2436C138.248 38.3896 138.081 38.52 137.873 38.6243C137.665 38.7285 137.405 38.7807 137.093 38.7807V38.7703ZM137.452 37.7117C137.863 37.7117 138.18 37.5501 138.398 37.2215C138.622 36.893 138.731 36.4654 138.731 35.9388C138.731 35.4121 138.622 34.9845 138.398 34.6664C138.18 34.3483 137.863 34.1919 137.447 34.1919C137.03 34.1919 136.692 34.3535 136.474 34.682C136.255 35.0106 136.146 35.4277 136.146 35.9388C136.146 36.4498 136.255 36.8774 136.479 37.2111C136.703 37.5448 137.02 37.7117 137.447 37.7117H137.452Z" fill="#FF2153"/>
</svg>
