<svg width="29" height="33" viewBox="0 0 29 33" fill="none" xmlns="http://www.w3.org/2000/svg">
<path d="M27.1542 33H7.30116C5.94878 32.4931 5.49028 31.9156 5.49028 30.6926C5.48892 22.7556 5.48892 14.8186 5.49028 6.88166C5.49028 5.44524 6.38688 4.57432 7.85762 4.57432C12.8413 4.57299 17.8263 4.57432 22.81 4.57432C22.9202 4.57432 23.0304 4.58499 23.112 4.58899C23.112 6.18946 23.1052 7.74992 23.1148 9.31171C23.1188 9.9719 23.5474 10.364 24.2304 10.3667C25.3964 10.3707 26.5637 10.3667 27.7297 10.3667C28.142 10.3667 28.5529 10.3667 28.9978 10.3667V10.6894C28.9978 13.7103 28.9978 16.7312 28.9978 19.7508C28.9978 23.4385 28.9991 27.1249 28.9978 30.8126C28.9978 31.881 28.3474 32.6865 27.2998 32.9439C27.2495 32.9559 27.2018 32.9799 27.1529 32.9986L27.1542 33ZM17.7025 13.6876C20.3311 13.6876 22.9597 13.6876 25.5896 13.6876C25.6848 13.6876 25.7814 13.693 25.8753 13.6836C26.0998 13.661 26.2222 13.5329 26.2222 13.3129C26.2222 13.0941 26.1039 12.9634 25.878 12.9408C25.8046 12.9341 25.7297 12.9381 25.6549 12.9381C20.376 12.9381 15.0971 12.9381 9.81817 12.9381C9.73381 12.9381 9.62089 12.9088 9.56919 12.9514C9.45082 13.0475 9.27939 13.1822 9.28483 13.2942C9.29164 13.4276 9.44402 13.573 9.56783 13.6716C9.63313 13.7237 9.77191 13.689 9.87803 13.689C12.4862 13.689 15.093 13.689 17.7012 13.689L17.7025 13.6876ZM17.7379 17.8329C20.3556 17.8329 22.9733 17.8329 25.5923 17.8329C25.7093 17.8329 25.8495 17.8635 25.9352 17.8102C26.0535 17.7382 26.1964 17.6048 26.2059 17.4888C26.2141 17.3714 26.0957 17.2153 25.9882 17.1273C25.9148 17.0673 25.7651 17.0833 25.6508 17.0833C20.3828 17.082 15.1148 17.082 9.8481 17.0833C9.74334 17.0833 9.60592 17.0606 9.53926 17.114C9.42497 17.2087 9.28075 17.3581 9.2862 17.4781C9.29164 17.5968 9.44946 17.7342 9.57327 17.8129C9.65762 17.8662 9.80048 17.8315 9.91613 17.8315C12.5229 17.8315 15.1311 17.8315 17.7379 17.8315V17.8329ZM17.7352 21.1818C15.1175 21.1818 12.4984 21.1818 9.88075 21.1818C9.78551 21.1818 9.68892 21.1765 9.59504 21.1858C9.38279 21.2072 9.23585 21.3379 9.27803 21.5326C9.30796 21.6753 9.45218 21.8047 9.57055 21.9127C9.61681 21.9554 9.73381 21.9274 9.81817 21.9274C15.0971 21.9274 20.376 21.9274 25.6535 21.9274C25.7583 21.9274 25.8998 21.9527 25.961 21.898C26.0739 21.7994 26.2127 21.6433 26.2032 21.5219C26.1937 21.4032 26.0263 21.2792 25.9025 21.1938C25.8386 21.1498 25.7175 21.1818 25.6222 21.1818C22.9937 21.1818 20.3651 21.1818 17.7365 21.1818H17.7352ZM21.4916 24.5535C21.5501 24.7642 21.5855 24.9123 21.6304 25.0576C21.742 25.4191 21.9841 25.5084 22.3066 25.3044C22.5556 25.147 22.7964 24.9776 23.0644 24.7989C23.259 25.083 23.4399 25.3617 23.6358 25.6311C23.8399 25.9112 24.1256 25.9806 24.2984 25.7698C24.8114 25.147 25.3107 24.5135 25.7964 23.8706C25.9651 23.6479 25.7991 23.3198 25.5229 23.3211C25.3896 23.3211 25.2209 23.4158 25.1311 23.5199C24.7624 23.9533 24.4182 24.4081 24.0454 24.8789C23.893 24.6549 23.7665 24.4655 23.6358 24.2774C23.3134 23.8119 23.2168 23.7933 22.7474 24.0987C22.5923 24.2001 22.4372 24.3014 22.2549 24.4215C22.1678 24.12 22.1093 23.8439 22.0046 23.5879C21.9569 23.4718 21.8222 23.3265 21.7134 23.3145C21.5855 23.2998 21.3896 23.3771 21.3148 23.4798C20.9542 23.968 20.6222 24.4761 20.2848 24.9803C20.1488 25.183 20.1556 25.3844 20.3746 25.5231C20.5896 25.6591 20.7787 25.5951 20.9202 25.3911C21.0916 25.1417 21.2617 24.8909 21.4903 24.5562L21.4916 24.5535ZM10.2086 24.8763C10.0291 24.6495 9.86443 24.4481 9.7066 24.2427C9.54742 24.036 9.35014 23.968 9.13245 24.132C8.90796 24.2987 8.94334 24.5028 9.10252 24.7042C9.3379 24.999 9.56783 25.2977 9.8032 25.5938C10.1188 25.9926 10.3787 25.9846 10.6685 25.5658C10.844 25.3124 11.0154 25.0563 11.1937 24.7962C11.4671 24.9803 11.6998 25.1443 11.9393 25.2977C12.2603 25.5044 12.4998 25.4257 12.6277 25.0683C12.6903 24.8936 12.7311 24.7095 12.7937 24.4881C12.9991 24.7455 13.1828 24.9723 13.361 25.2017C13.5161 25.4017 13.6984 25.4898 13.9325 25.3324C14.1433 25.1897 14.1556 24.9869 13.961 24.7389C13.6454 24.3334 13.3352 23.924 12.9964 23.5372C12.893 23.4185 12.693 23.2918 12.561 23.3118C12.4277 23.3331 12.2821 23.5145 12.2168 23.6586C12.112 23.8893 12.0685 24.148 11.9923 24.4161C11.8086 24.2947 11.6522 24.1894 11.4944 24.0867C11.0413 23.7919 10.9406 23.8119 10.6277 24.2614C10.4916 24.4575 10.3569 24.6562 10.2086 24.8736V24.8763ZM11.625 26.8088C10.6712 26.8088 9.71885 26.8088 8.76511 26.8088C8.41817 26.8088 8.25626 26.9315 8.25762 27.1836C8.25898 27.4343 8.42225 27.557 8.76919 27.557C10.6753 27.557 12.5828 27.5584 14.4889 27.557C14.8318 27.557 14.9978 27.4277 14.9964 27.1783C14.995 26.9262 14.8345 26.8088 14.4848 26.8075C13.5311 26.8061 12.5787 26.8075 11.625 26.8075V26.8088ZM22.859 26.8088C21.9066 26.8088 20.9542 26.8088 20.0018 26.8088C19.6522 26.8088 19.4971 26.9262 19.4984 27.1836C19.4984 27.4383 19.6563 27.5584 20.0046 27.5584C21.9093 27.5584 23.8141 27.5584 25.7202 27.5584C26.0644 27.5584 26.2263 27.433 26.225 27.1796C26.225 26.9248 26.0685 26.8088 25.7175 26.8088C24.7651 26.8075 23.8127 26.8088 22.8603 26.8088H22.859Z" fill="#FF2153"/>
<path d="M18.9633 0C19.181 0.0773559 19.4109 0.133372 19.615 0.236069C20.3061 0.586838 20.702 1.155 20.7864 1.91122C20.8231 2.23799 20.7932 2.57275 20.7932 2.94886C20.6476 2.94886 20.5143 2.94886 20.381 2.94886C15.8639 2.94886 11.3469 2.94753 6.82993 2.94886C5.44626 2.94886 4.38095 3.6504 4.00408 4.84941C3.89116 5.20952 3.8585 5.60697 3.8585 5.98708C3.85034 13.3079 3.85306 20.63 3.85306 27.9508V28.459C3.08299 28.4203 2.33333 28.463 1.61769 28.3283C0.608163 28.1415 0 27.2586 0 26.181C0 19.7338 0 13.2879 0 6.84066C0 5.32022 0 3.79977 0 2.27933C0 1.09765 0.594558 0.3441 1.76054 0.0413454C1.79048 0.0333431 1.81769 0.0146709 1.84626 0C7.55102 0 13.2571 0 18.9633 0Z" fill="#FF2153"/>
<path d="M26.3759 9.7425C25.6766 9.7425 24.9786 9.74384 24.2793 9.7425C23.8725 9.74117 23.7487 9.62247 23.7473 9.21969C23.7446 7.84728 23.7473 6.47488 23.7473 5.10248C23.7473 4.89842 23.7582 4.66102 24.0017 4.62901C24.1568 4.60901 24.3772 4.68636 24.4915 4.79573C25.9323 6.18947 27.3623 7.59388 28.7813 9.00762C28.8942 9.11966 28.9759 9.33839 28.9527 9.4891C28.9187 9.71583 28.6874 9.74517 28.4711 9.74384C27.7718 9.73984 27.0738 9.7425 26.3745 9.7425H26.3759Z" fill="#FF2153"/>
</svg>
