<svg width="38" height="27" viewBox="0 0 38 27" fill="none" xmlns="http://www.w3.org/2000/svg">
<g clip-path="url(#clip0_91_734)">
<path d="M37.9997 9.08004C37.7687 9.33595 37.5606 9.62126 37.2979 9.83892C37.1046 9.99972 36.8647 9.93599 36.7359 9.69578C36.5396 9.33104 36.2175 9.20554 35.8269 9.15554C32.2238 8.69962 28.6216 8.23783 25.0195 7.77799C23.0836 7.53091 21.1477 7.28286 19.2108 7.0397C18.5071 6.95146 17.9044 7.39953 17.8231 8.05938C17.7418 8.71531 18.2196 9.28202 18.9293 9.3732C23.0945 9.90559 27.2607 10.4399 31.4258 10.9714C32.2585 11.0782 33.0921 11.1812 33.9257 11.2841C34.342 11.3351 34.4372 11.4332 34.4372 11.8449C34.4382 16.0766 34.4392 20.3093 34.4372 24.541C34.4372 25.2881 33.9366 25.8136 33.2467 25.8116C32.5707 25.8097 32.0662 25.2685 32.0652 24.5233C32.0622 20.5358 32.0642 16.5482 32.0642 12.5607C32.0642 12.4273 32.0642 12.294 32.0642 12.1136C31.9046 12.1773 31.7807 12.2224 31.6588 12.2744C27.7057 13.9696 23.7497 15.657 19.8036 17.3679C19.2336 17.615 18.74 17.5954 18.176 17.3522C12.4278 14.8726 6.67072 12.4117 0.916604 9.94579C0.0631506 9.58008 -0.25801 8.77708 0.223731 8.129C0.368451 7.93388 0.601391 7.77113 0.829375 7.67308C6.69352 5.15133 12.5626 2.64036 18.4268 0.117632C18.8927 -0.0823827 19.302 -0.00492617 19.7421 0.184303C24.282 2.1364 28.8248 4.07968 33.3677 6.02688C34.5452 6.53182 35.7179 7.05049 36.9034 7.5368C37.3911 7.73681 37.7915 7.99859 38.0007 8.49373V9.08103L37.9997 9.08004Z" fill="#FF2153"/>
<path d="M30.8408 18.0602C30.8408 18.8661 30.9102 19.6799 30.8259 20.477C30.6524 22.1154 29.684 23.3057 28.4152 24.2802C26.8104 25.5127 24.9558 26.2029 22.9862 26.5912C19.6022 27.2579 16.2508 27.1334 12.9678 26.0294C11.1895 25.4313 9.57581 24.5538 8.35163 23.0949C7.54278 22.1311 7.1116 21.028 7.12944 19.7583C7.14629 18.4994 7.13241 17.2395 7.1334 15.9806C7.1334 15.3796 7.32769 15.2511 7.87881 15.4865C11.027 16.8346 14.1801 18.171 17.3193 19.5397C18.4553 20.0358 19.5447 20.0417 20.6796 19.5485C23.809 18.1886 26.9502 16.8542 30.0864 15.51C30.6961 15.2492 30.8765 15.3619 30.8775 16.0051C30.8775 16.6895 30.8775 17.3748 30.8775 18.0592H30.8408V18.0602Z" fill="#FF2153"/>
</g>
<defs>
<clipPath id="clip0_91_734">
<rect width="38" height="27" fill="white"/>
</clipPath>
</defs>
</svg>
