<svg width="27" height="27" viewBox="0 0 27 27" fill="none" xmlns="http://www.w3.org/2000/svg">
<path d="M13.4996 0C20.9556 0 27 6.04438 27 13.5004C27 20.9563 20.9556 27 13.4996 27C6.04367 27 0 20.9563 0 13.5004C0 6.04438 6.04438 0 13.4996 0ZM20.266 10.9674C20.4442 11.4125 20.876 11.6069 21.2916 11.4492C21.7157 11.2879 21.8995 10.8455 21.7326 10.3841C21.2437 9.0317 19.9357 8.11881 18.4888 8.12092C17.0512 8.12233 15.7614 9.01972 15.2599 10.3672C15.088 10.8286 15.2613 11.271 15.6804 11.4428C16.0988 11.614 16.5321 11.4125 16.7251 10.9568C17.066 10.1517 17.7042 9.68608 18.4994 9.7065C19.3616 9.72904 19.9448 10.1665 20.266 10.9674ZM8.09486 17.9296C8.77178 19.0291 9.69946 19.849 10.8695 20.3928C11.7013 20.7788 12.5797 20.962 13.7222 20.9768C15.8037 20.8845 17.6232 19.9188 18.8847 17.9599C19.1517 17.545 19.058 17.0702 18.6776 16.8265C18.2965 16.5828 17.8253 16.6934 17.5591 17.1075C16.718 18.4121 15.5396 19.2024 13.992 19.3503C12.0733 19.5335 10.5771 18.7671 9.4973 17.1815C9.34938 16.9645 9.19582 16.768 8.92463 16.7145C8.59427 16.6497 8.31533 16.7405 8.10965 17.0153C7.91242 17.2794 7.90538 17.621 8.09486 17.9296ZM5.68936 11.4421C6.11411 11.6168 6.55154 11.4069 6.74665 10.9343C7.06433 10.1658 7.70815 9.70862 8.48157 9.70228C9.28176 9.69594 9.92768 10.1453 10.2658 10.9427C10.4468 11.3689 10.8004 11.5738 11.2005 11.483C11.5696 11.3992 11.8352 11.0484 11.8084 10.6666C11.8007 10.5637 11.769 10.4602 11.733 10.3623C11.2343 9.01691 9.94036 8.12092 8.50129 8.12092C7.0749 8.12022 5.78728 9.00775 5.27941 10.3405C5.09697 10.8201 5.2625 11.2667 5.68936 11.4421Z" fill="#FF2153"/>
</svg>
