<svg width="62" height="29" viewBox="0 0 62 29" fill="none" xmlns="http://www.w3.org/2000/svg">
<g clip-path="url(#clip0_91_1745)">
<path d="M32.3116 0.439538L36.3506 8.71567C36.4685 8.9466 36.6896 9.11049 36.9402 9.14773L45.9764 10.4737C46.6176 10.5705 46.8755 11.3676 46.4112 11.8295L39.8736 18.2731C39.6894 18.4519 39.6009 18.72 39.6452 18.9733L41.1856 28.0689C41.2961 28.717 40.6254 29.2086 40.0432 28.9032L31.9578 24.6124C31.7293 24.4932 31.4566 24.4932 31.2281 24.6124L23.1428 28.9032C22.5679 29.2086 21.8898 28.717 22.0004 28.0689L23.5408 18.9733C23.585 18.7126 23.4966 18.4519 23.3123 18.2731L16.7747 11.8295C16.3104 11.3676 16.5684 10.5705 17.2096 10.4737L26.2457 9.14773C26.5037 9.11049 26.7248 8.9466 26.8354 8.71567L30.9038 0.439538C31.1913 -0.148954 32.0241 -0.148954 32.3116 0.439538Z" fill="#FF2153"/>
<path d="M9.78773 11.9113L11.9841 16.4107C12.102 16.6416 12.3232 16.8055 12.5738 16.8428L17.4898 17.5653C18.1311 17.6622 18.389 18.4592 17.9247 18.9211L14.3648 22.4223C14.1805 22.601 14.0921 22.8692 14.1363 23.1225L14.9765 28.0688C15.0871 28.7169 14.4164 29.2085 13.8341 28.9031L9.44133 26.5641C9.21284 26.4449 8.94014 26.4449 8.71165 26.5641L4.31888 28.9031C3.74399 29.2085 3.06591 28.7169 3.17647 28.0688L4.01669 23.1225C4.06092 22.8618 3.97247 22.601 3.78821 22.4223L0.235668 18.9211C-0.228669 18.4592 0.0292957 17.6622 0.670522 17.5653L5.58659 16.8428C5.84456 16.8055 6.06567 16.6416 6.17623 16.4107L8.37261 11.9113C8.66006 11.3228 9.49292 11.3228 9.78036 11.9113H9.78773Z" fill="#FF2153"/>
<path d="M53.6203 11.9113L55.8167 16.4107C55.9346 16.6416 56.1557 16.8055 56.4063 16.8428L61.3224 17.5653C61.9636 17.6622 62.2216 18.4592 61.7572 18.9211L58.1973 22.4223C58.0131 22.601 57.9246 22.8692 57.9688 23.1225L58.8091 28.0688C58.9196 28.7169 58.2489 29.2085 57.6667 28.9031L53.2739 26.5641C53.0454 26.4449 52.7727 26.4449 52.5442 26.5641L48.1514 28.9031C47.5766 29.2085 46.8985 28.7169 47.009 28.0688L47.8493 23.1225C47.8935 22.8618 47.805 22.601 47.6208 22.4223L44.0609 18.9211C43.5965 18.4592 43.8545 17.6622 44.4957 17.5653L49.4118 16.8428C49.6698 16.8055 49.8909 16.6416 50.0014 16.4107L52.1978 11.9113C52.4853 11.3228 53.3181 11.3228 53.6056 11.9113H53.6203Z" fill="#FF2153"/>
</g>
<defs>
<clipPath id="clip0_91_1745">
<rect width="62" height="29" fill="white"/>
</clipPath>
</defs>
</svg>
