<svg width="22" height="28" viewBox="0 0 22 28" fill="none" xmlns="http://www.w3.org/2000/svg">
<path d="M18.6925 9.48431L17.4186 12.2169H8.23114C8.20482 12.6355 8.19253 13.0729 8.19253 13.5257C8.19253 13.9786 8.20482 14.3817 8.23114 14.7831H16.2658L14.9129 17.5552H8.66454C9.13655 19.2997 9.91562 20.5965 11.0018 21.4439C12.0861 22.2913 13.3653 22.715 14.8357 22.715C15.9903 22.715 17.008 22.504 17.8871 22.0803C18.7662 21.6566 19.4908 21.2226 20.0593 20.7783L21.9228 24.6019C20.9858 25.3979 19.9102 25.9965 18.6942 26.3979C17.4782 26.7993 16.1921 27.0017 14.8357 27.0017C12.044 27.0017 9.65944 26.1766 7.68193 24.5247C5.70442 22.8745 4.39544 20.5502 3.75674 17.5569H0L1.03701 14.7848H3.3865C3.36018 14.3748 3.3479 13.9546 3.3479 13.5275C3.3479 13.1003 3.36018 12.6458 3.3865 12.2186H0L1.03701 9.48603H3.75498C4.39368 6.49098 5.70266 4.16322 7.68017 2.49759C9.65768 0.831957 12.0423 0 14.8339 0C16.2429 0 17.5467 0.216137 18.7451 0.648412C19.9435 1.08069 21.0297 1.69479 22 2.49073L20.1629 6.3143C19.5329 5.82713 18.7732 5.36741 17.8853 4.93514C16.9974 4.50286 15.9797 4.28672 14.8339 4.28672C13.3635 4.28672 12.0861 4.71385 11 5.56983C9.91386 6.4258 9.13655 7.72948 8.66278 9.48431H18.6925Z" fill="#FF2153"/>
</svg>
